<svg viewBox="0 0 600 900" xmlns="http://www.w3.org/2000/svg" role="img" aria-labelledby="history-cover-title" class="cover-art"><title id="history-cover-title">Volume II: History — book cover</title><defs><g id="history-bh"><line x1="0" y1="-16" x2="516" y2="-16" stroke="#20262A" stroke-width="0.5"/><line x1="0" y1="16" x2="516" y2="16" stroke="#20262A" stroke-width="0.5"/><path d="M0,0L3,4.3L6,8L9,10.6L12,11.9L15,11.7L18,9.9L21,6.8L24,2.9L27,-1.4L30,-5.6L33,-9L36,-11.2L39,-12L42,-11.2L45,-9L48,-5.6L51,-1.4L54,2.9L57,6.8L60,9.9L63,11.7L66,11.9L69,10.6L72,8L75,4.3L78,0L81,-4.3L84,-8L87,-10.6L90,-11.9L93,-11.7L96,-9.9L99,-6.8L102,-2.9L105,1.4L108,5.6L111,9L114,11.2L117,12L120,11.2L123,9L126,5.6L129,1.4L132,-2.9L135,-6.8L138,-9.9L141,-11.7L144,-11.9L147,-10.6L150,-8L153,-4.3L156,-0L159,4.3L162,8L165,10.6L168,11.9L171,11.7L174,9.9L177,6.8L180,2.9L183,-1.4L186,-5.6L189,-9L192,-11.2L195,-12L198,-11.2L201,-9L204,-5.6L207,-1.4L210,2.9L213,6.8L216,9.9L219,11.7L222,11.9L225,10.6L228,8L231,4.3L234,0L237,-4.3L240,-8L243,-10.6L246,-11.9L249,-11.7L252,-9.9L255,-6.8L258,-2.9L261,1.4L264,5.6L267,9L270,11.2L273,12L276,11.2L279,9L282,5.6L285,1.4L288,-2.9L291,-6.8L294,-9.9L297,-11.7L300,-11.9L303,-10.6L306,-8L309,-4.3L312,-0L315,4.3L318,8L321,10.6L324,11.9L327,11.7L330,9.9L333,6.8L336,2.9L339,-1.4L342,-5.6L345,-9L348,-11.2L351,-12L354,-11.2L357,-9L360,-5.6L363,-1.4L366,2.9L369,6.8L372,9.9L375,11.7L378,11.9L381,10.6L384,8L387,4.3L390,0L393,-4.3L396,-8L399,-10.6L402,-11.9L405,-11.7L408,-9.9L411,-6.8L414,-2.9L417,1.4L420,5.6L423,9L426,11.2L429,12L432,11.2L435,9L438,5.6L441,1.4L444,-2.9L447,-6.8L450,-9.9L453,-11.7L456,-11.9L459,-10.6L462,-8L465,-4.3L468,-0L471,4.3L474,8L477,10.6L480,11.9L483,11.7L486,9.9L489,6.8L492,2.9L495,-1.4L498,-5.6L501,-9L504,-11.2L507,-12L510,-11.2L513,-9L516,-5.6" fill="none" stroke="#1F5C45" stroke-width="0.9"/><path d="M0,12L3,11.2L6,9L9,5.6L12,1.4L15,-2.9L18,-6.8L21,-9.9L24,-11.7L27,-11.9L30,-10.6L33,-8L36,-4.3L39,-0L42,4.3L45,8L48,10.6L51,11.9L54,11.7L57,9.9L60,6.8L63,2.9L66,-1.4L69,-5.6L72,-9L75,-11.2L78,-12L81,-11.2L84,-9L87,-5.6L90,-1.4L93,2.9L96,6.8L99,9.9L102,11.7L105,11.9L108,10.6L111,8L114,4.3L117,0L120,-4.3L123,-8L126,-10.6L129,-11.9L132,-11.7L135,-9.9L138,-6.8L141,-2.9L144,1.4L147,5.6L150,9L153,11.2L156,12L159,11.2L162,9L165,5.6L168,1.4L171,-2.9L174,-6.8L177,-9.9L180,-11.7L183,-11.9L186,-10.6L189,-8L192,-4.3L195,-0L198,4.3L201,8L204,10.6L207,11.9L210,11.7L213,9.9L216,6.8L219,2.9L222,-1.4L225,-5.6L228,-9L231,-11.2L234,-12L237,-11.2L240,-9L243,-5.6L246,-1.4L249,2.9L252,6.8L255,9.9L258,11.7L261,11.9L264,10.6L267,8L270,4.3L273,-0L276,-4.3L279,-8L282,-10.6L285,-11.9L288,-11.7L291,-9.9L294,-6.8L297,-2.9L300,1.4L303,5.6L306,9L309,11.2L312,12L315,11.2L318,9L321,5.6L324,1.4L327,-2.9L330,-6.8L333,-9.9L336,-11.7L339,-11.9L342,-10.6L345,-8L348,-4.3L351,-0L354,4.3L357,8L360,10.6L363,11.9L366,11.7L369,9.9L372,6.8L375,2.9L378,-1.4L381,-5.6L384,-9L387,-11.2L390,-12L393,-11.2L396,-9L399,-5.6L402,-1.4L405,2.9L408,6.8L411,9.9L414,11.7L417,11.9L420,10.6L423,8L426,4.3L429,-0L432,-4.3L435,-8L438,-10.6L441,-11.9L444,-11.7L447,-9.9L450,-6.8L453,-2.9L456,1.4L459,5.6L462,9L465,11.2L468,12L471,11.2L474,9L477,5.6L480,1.4L483,-2.9L486,-6.8L489,-9.9L492,-11.7L495,-11.9L498,-10.6L501,-8L504,-4.3L507,-0L510,4.3L513,8L516,10.6" fill="none" stroke="#B8892B" stroke-width="0.9"/><path d="M0,0L3,-4.3L6,-8L9,-10.6L12,-11.9L15,-11.7L18,-9.9L21,-6.8L24,-2.9L27,1.4L30,5.6L33,9L36,11.2L39,12L42,11.2L45,9L48,5.6L51,1.4L54,-2.9L57,-6.8L60,-9.9L63,-11.7L66,-11.9L69,-10.6L72,-8L75,-4.3L78,-0L81,4.3L84,8L87,10.6L90,11.9L93,11.7L96,9.9L99,6.8L102,2.9L105,-1.4L108,-5.6L111,-9L114,-11.2L117,-12L120,-11.2L123,-9L126,-5.6L129,-1.4L132,2.9L135,6.8L138,9.9L141,11.7L144,11.9L147,10.6L150,8L153,4.3L156,0L159,-4.3L162,-8L165,-10.6L168,-11.9L171,-11.7L174,-9.9L177,-6.8L180,-2.9L183,1.4L186,5.6L189,9L192,11.2L195,12L198,11.2L201,9L204,5.6L207,1.4L210,-2.9L213,-6.8L216,-9.9L219,-11.7L222,-11.9L225,-10.6L228,-8L231,-4.3L234,-0L237,4.3L240,8L243,10.6L246,11.9L249,11.7L252,9.9L255,6.8L258,2.9L261,-1.4L264,-5.6L267,-9L270,-11.2L273,-12L276,-11.2L279,-9L282,-5.6L285,-1.4L288,2.9L291,6.8L294,9.9L297,11.7L300,11.9L303,10.6L306,8L309,4.3L312,-0L315,-4.3L318,-8L321,-10.6L324,-11.9L327,-11.7L330,-9.9L333,-6.8L336,-2.9L339,1.4L342,5.6L345,9L348,11.2L351,12L354,11.2L357,9L360,5.6L363,1.4L366,-2.9L369,-6.8L372,-9.9L375,-11.7L378,-11.9L381,-10.6L384,-8L387,-4.3L390,-0L393,4.3L396,8L399,10.6L402,11.9L405,11.7L408,9.9L411,6.8L414,2.9L417,-1.4L420,-5.6L423,-9L426,-11.2L429,-12L432,-11.2L435,-9L438,-5.6L441,-1.4L444,2.9L447,6.8L450,9.9L453,11.7L456,11.9L459,10.6L462,8L465,4.3L468,0L471,-4.3L474,-8L477,-10.6L480,-11.9L483,-11.7L486,-9.9L489,-6.8L492,-2.9L495,1.4L498,5.6L501,9L504,11.2L507,12L510,11.2L513,9L516,5.6" fill="none" stroke="#1F5C45" stroke-width="0.9"/><path d="M0,-12L3,-11.2L6,-9L9,-5.6L12,-1.4L15,2.9L18,6.8L21,9.9L24,11.7L27,11.9L30,10.6L33,8L36,4.3L39,0L42,-4.3L45,-8L48,-10.6L51,-11.9L54,-11.7L57,-9.9L60,-6.8L63,-2.9L66,1.4L69,5.6L72,9L75,11.2L78,12L81,11.2L84,9L87,5.6L90,1.4L93,-2.9L96,-6.8L99,-9.9L102,-11.7L105,-11.9L108,-10.6L111,-8L114,-4.3L117,-0L120,4.3L123,8L126,10.6L129,11.9L132,11.7L135,9.9L138,6.8L141,2.9L144,-1.4L147,-5.6L150,-9L153,-11.2L156,-12L159,-11.2L162,-9L165,-5.6L168,-1.4L171,2.9L174,6.8L177,9.9L180,11.7L183,11.9L186,10.6L189,8L192,4.3L195,0L198,-4.3L201,-8L204,-10.6L207,-11.9L210,-11.7L213,-9.9L216,-6.8L219,-2.9L222,1.4L225,5.6L228,9L231,11.2L234,12L237,11.2L240,9L243,5.6L246,1.4L249,-2.9L252,-6.8L255,-9.9L258,-11.7L261,-11.9L264,-10.6L267,-8L270,-4.3L273,-0L276,4.3L279,8L282,10.6L285,11.9L288,11.7L291,9.9L294,6.8L297,2.9L300,-1.4L303,-5.6L306,-9L309,-11.2L312,-12L315,-11.2L318,-9L321,-5.6L324,-1.4L327,2.9L330,6.8L333,9.9L336,11.7L339,11.9L342,10.6L345,8L348,4.3L351,0L354,-4.3L357,-8L360,-10.6L363,-11.9L366,-11.7L369,-9.9L372,-6.8L375,-2.9L378,1.4L381,5.6L384,9L387,11.2L390,12L393,11.2L396,9L399,5.6L402,1.4L405,-2.9L408,-6.8L411,-9.9L414,-11.7L417,-11.9L420,-10.6L423,-8L426,-4.3L429,-0L432,4.3L435,8L438,10.6L441,11.9L444,11.7L447,9.9L450,6.8L453,2.9L456,-1.4L459,-5.6L462,-9L465,-11.2L468,-12L471,-11.2L474,-9L477,-5.6L480,-1.4L483,2.9L486,6.8L489,9.9L492,11.7L495,11.9L498,10.6L501,8L504,4.3L507,-0L510,-4.3L513,-8L516,-10.6" fill="none" stroke="#B8892B" stroke-width="0.9"/></g><g id="history-bv"><line x1="0" y1="-16" x2="816" y2="-16" stroke="#20262A" stroke-width="0.5"/><line x1="0" y1="16" x2="816" y2="16" stroke="#20262A" stroke-width="0.5"/><path d="M0,0L3,4.3L6,8L9,10.6L12,11.9L15,11.7L18,9.9L21,6.8L24,2.9L27,-1.4L30,-5.6L33,-9L36,-11.2L39,-12L42,-11.2L45,-9L48,-5.6L51,-1.4L54,2.9L57,6.8L60,9.9L63,11.7L66,11.9L69,10.6L72,8L75,4.3L78,0L81,-4.3L84,-8L87,-10.6L90,-11.9L93,-11.7L96,-9.9L99,-6.8L102,-2.9L105,1.4L108,5.6L111,9L114,11.2L117,12L120,11.2L123,9L126,5.6L129,1.4L132,-2.9L135,-6.8L138,-9.9L141,-11.7L144,-11.9L147,-10.6L150,-8L153,-4.3L156,-0L159,4.3L162,8L165,10.6L168,11.9L171,11.7L174,9.9L177,6.8L180,2.9L183,-1.4L186,-5.6L189,-9L192,-11.2L195,-12L198,-11.2L201,-9L204,-5.6L207,-1.4L210,2.9L213,6.8L216,9.9L219,11.7L222,11.9L225,10.6L228,8L231,4.3L234,0L237,-4.3L240,-8L243,-10.6L246,-11.9L249,-11.7L252,-9.9L255,-6.8L258,-2.9L261,1.4L264,5.6L267,9L270,11.2L273,12L276,11.2L279,9L282,5.6L285,1.4L288,-2.9L291,-6.8L294,-9.9L297,-11.7L300,-11.9L303,-10.6L306,-8L309,-4.3L312,-0L315,4.3L318,8L321,10.6L324,11.9L327,11.7L330,9.9L333,6.8L336,2.9L339,-1.4L342,-5.6L345,-9L348,-11.2L351,-12L354,-11.2L357,-9L360,-5.6L363,-1.4L366,2.9L369,6.8L372,9.9L375,11.7L378,11.9L381,10.6L384,8L387,4.3L390,0L393,-4.3L396,-8L399,-10.6L402,-11.9L405,-11.7L408,-9.9L411,-6.8L414,-2.9L417,1.4L420,5.6L423,9L426,11.2L429,12L432,11.2L435,9L438,5.6L441,1.4L444,-2.9L447,-6.8L450,-9.9L453,-11.7L456,-11.9L459,-10.6L462,-8L465,-4.3L468,-0L471,4.3L474,8L477,10.6L480,11.9L483,11.7L486,9.9L489,6.8L492,2.9L495,-1.4L498,-5.6L501,-9L504,-11.2L507,-12L510,-11.2L513,-9L516,-5.6L519,-1.4L522,2.9L525,6.8L528,9.9L531,11.7L534,11.9L537,10.6L540,8L543,4.3L546,-0L549,-4.3L552,-8L555,-10.6L558,-11.9L561,-11.7L564,-9.9L567,-6.8L570,-2.9L573,1.4L576,5.6L579,9L582,11.2L585,12L588,11.2L591,9L594,5.6L597,1.4L600,-2.9L603,-6.8L606,-9.9L609,-11.7L612,-11.9L615,-10.6L618,-8L621,-4.3L624,-0L627,4.3L630,8L633,10.6L636,11.9L639,11.7L642,9.9L645,6.8L648,2.9L651,-1.4L654,-5.6L657,-9L660,-11.2L663,-12L666,-11.2L669,-9L672,-5.6L675,-1.4L678,2.9L681,6.8L684,9.9L687,11.7L690,11.9L693,10.6L696,8L699,4.3L702,0L705,-4.3L708,-8L711,-10.6L714,-11.9L717,-11.7L720,-9.9L723,-6.8L726,-2.9L729,1.4L732,5.6L735,9L738,11.2L741,12L744,11.2L747,9L750,5.6L753,1.4L756,-2.9L759,-6.8L762,-9.9L765,-11.7L768,-11.9L771,-10.6L774,-8L777,-4.3L780,-0L783,4.3L786,8L789,10.6L792,11.9L795,11.7L798,9.9L801,6.8L804,2.9L807,-1.4L810,-5.6L813,-9L816,-11.2" fill="none" stroke="#1F5C45" stroke-width="0.9"/><path d="M0,12L3,11.2L6,9L9,5.6L12,1.4L15,-2.9L18,-6.8L21,-9.9L24,-11.7L27,-11.9L30,-10.6L33,-8L36,-4.3L39,-0L42,4.3L45,8L48,10.6L51,11.9L54,11.7L57,9.9L60,6.8L63,2.9L66,-1.4L69,-5.6L72,-9L75,-11.2L78,-12L81,-11.2L84,-9L87,-5.6L90,-1.4L93,2.9L96,6.8L99,9.9L102,11.7L105,11.9L108,10.6L111,8L114,4.3L117,0L120,-4.3L123,-8L126,-10.6L129,-11.9L132,-11.7L135,-9.9L138,-6.8L141,-2.9L144,1.4L147,5.6L150,9L153,11.2L156,12L159,11.2L162,9L165,5.6L168,1.4L171,-2.9L174,-6.8L177,-9.9L180,-11.7L183,-11.9L186,-10.6L189,-8L192,-4.3L195,-0L198,4.3L201,8L204,10.6L207,11.9L210,11.7L213,9.9L216,6.8L219,2.9L222,-1.4L225,-5.6L228,-9L231,-11.2L234,-12L237,-11.2L240,-9L243,-5.6L246,-1.4L249,2.9L252,6.8L255,9.9L258,11.7L261,11.9L264,10.6L267,8L270,4.3L273,-0L276,-4.3L279,-8L282,-10.6L285,-11.9L288,-11.7L291,-9.9L294,-6.8L297,-2.9L300,1.4L303,5.6L306,9L309,11.2L312,12L315,11.2L318,9L321,5.6L324,1.4L327,-2.9L330,-6.8L333,-9.9L336,-11.7L339,-11.9L342,-10.6L345,-8L348,-4.3L351,-0L354,4.3L357,8L360,10.6L363,11.9L366,11.7L369,9.9L372,6.8L375,2.9L378,-1.4L381,-5.6L384,-9L387,-11.2L390,-12L393,-11.2L396,-9L399,-5.6L402,-1.4L405,2.9L408,6.8L411,9.9L414,11.7L417,11.9L420,10.6L423,8L426,4.3L429,-0L432,-4.3L435,-8L438,-10.6L441,-11.9L444,-11.7L447,-9.9L450,-6.8L453,-2.9L456,1.4L459,5.6L462,9L465,11.2L468,12L471,11.2L474,9L477,5.6L480,1.4L483,-2.9L486,-6.8L489,-9.9L492,-11.7L495,-11.9L498,-10.6L501,-8L504,-4.3L507,-0L510,4.3L513,8L516,10.6L519,11.9L522,11.7L525,9.9L528,6.8L531,2.9L534,-1.4L537,-5.6L540,-9L543,-11.2L546,-12L549,-11.2L552,-9L555,-5.6L558,-1.4L561,2.9L564,6.8L567,9.9L570,11.7L573,11.9L576,10.6L579,8L582,4.3L585,0L588,-4.3L591,-8L594,-10.6L597,-11.9L600,-11.7L603,-9.9L606,-6.8L609,-2.9L612,1.4L615,5.6L618,9L621,11.2L624,12L627,11.2L630,9L633,5.6L636,1.4L639,-2.9L642,-6.8L645,-9.9L648,-11.7L651,-11.9L654,-10.6L657,-8L660,-4.3L663,-0L666,4.3L669,8L672,10.6L675,11.9L678,11.7L681,9.9L684,6.8L687,2.9L690,-1.4L693,-5.6L696,-9L699,-11.2L702,-12L705,-11.2L708,-9L711,-5.6L714,-1.4L717,2.9L720,6.8L723,9.9L726,11.7L729,11.9L732,10.6L735,8L738,4.3L741,-0L744,-4.3L747,-8L750,-10.6L753,-11.9L756,-11.7L759,-9.9L762,-6.8L765,-2.9L768,1.4L771,5.6L774,9L777,11.2L780,12L783,11.2L786,9L789,5.6L792,1.4L795,-2.9L798,-6.8L801,-9.9L804,-11.7L807,-11.9L810,-10.6L813,-8L816,-4.3" fill="none" stroke="#B8892B" stroke-width="0.9"/><path d="M0,0L3,-4.3L6,-8L9,-10.6L12,-11.9L15,-11.7L18,-9.9L21,-6.8L24,-2.9L27,1.4L30,5.6L33,9L36,11.2L39,12L42,11.2L45,9L48,5.6L51,1.4L54,-2.9L57,-6.8L60,-9.9L63,-11.7L66,-11.9L69,-10.6L72,-8L75,-4.3L78,-0L81,4.3L84,8L87,10.6L90,11.9L93,11.7L96,9.9L99,6.8L102,2.9L105,-1.4L108,-5.6L111,-9L114,-11.2L117,-12L120,-11.2L123,-9L126,-5.6L129,-1.4L132,2.9L135,6.8L138,9.9L141,11.7L144,11.9L147,10.6L150,8L153,4.3L156,0L159,-4.3L162,-8L165,-10.6L168,-11.9L171,-11.7L174,-9.9L177,-6.8L180,-2.9L183,1.4L186,5.6L189,9L192,11.2L195,12L198,11.2L201,9L204,5.6L207,1.4L210,-2.9L213,-6.8L216,-9.9L219,-11.7L222,-11.9L225,-10.6L228,-8L231,-4.3L234,-0L237,4.3L240,8L243,10.6L246,11.9L249,11.7L252,9.9L255,6.8L258,2.9L261,-1.4L264,-5.6L267,-9L270,-11.2L273,-12L276,-11.2L279,-9L282,-5.6L285,-1.4L288,2.9L291,6.8L294,9.9L297,11.7L300,11.9L303,10.6L306,8L309,4.3L312,-0L315,-4.3L318,-8L321,-10.6L324,-11.9L327,-11.7L330,-9.9L333,-6.8L336,-2.9L339,1.4L342,5.6L345,9L348,11.2L351,12L354,11.2L357,9L360,5.6L363,1.4L366,-2.9L369,-6.8L372,-9.9L375,-11.7L378,-11.9L381,-10.6L384,-8L387,-4.3L390,-0L393,4.3L396,8L399,10.6L402,11.9L405,11.7L408,9.9L411,6.8L414,2.9L417,-1.4L420,-5.6L423,-9L426,-11.2L429,-12L432,-11.2L435,-9L438,-5.6L441,-1.4L444,2.9L447,6.8L450,9.9L453,11.7L456,11.9L459,10.6L462,8L465,4.3L468,0L471,-4.3L474,-8L477,-10.6L480,-11.9L483,-11.7L486,-9.9L489,-6.8L492,-2.9L495,1.4L498,5.6L501,9L504,11.2L507,12L510,11.2L513,9L516,5.6L519,1.4L522,-2.9L525,-6.8L528,-9.9L531,-11.7L534,-11.9L537,-10.6L540,-8L543,-4.3L546,0L549,4.3L552,8L555,10.6L558,11.9L561,11.7L564,9.9L567,6.8L570,2.9L573,-1.4L576,-5.6L579,-9L582,-11.2L585,-12L588,-11.2L591,-9L594,-5.6L597,-1.4L600,2.9L603,6.8L606,9.9L609,11.7L612,11.9L615,10.6L618,8L621,4.3L624,-0L627,-4.3L630,-8L633,-10.6L636,-11.9L639,-11.7L642,-9.9L645,-6.8L648,-2.9L651,1.4L654,5.6L657,9L660,11.2L663,12L666,11.2L669,9L672,5.6L675,1.4L678,-2.9L681,-6.8L684,-9.9L687,-11.7L690,-11.9L693,-10.6L696,-8L699,-4.3L702,-0L705,4.3L708,8L711,10.6L714,11.9L717,11.7L720,9.9L723,6.8L726,2.9L729,-1.4L732,-5.6L735,-9L738,-11.2L741,-12L744,-11.2L747,-9L750,-5.6L753,-1.4L756,2.9L759,6.8L762,9.9L765,11.7L768,11.9L771,10.6L774,8L777,4.3L780,0L783,-4.3L786,-8L789,-10.6L792,-11.9L795,-11.7L798,-9.9L801,-6.8L804,-2.9L807,1.4L810,5.6L813,9L816,11.2" fill="none" stroke="#1F5C45" stroke-width="0.9"/><path d="M0,-12L3,-11.2L6,-9L9,-5.6L12,-1.4L15,2.9L18,6.8L21,9.9L24,11.7L27,11.9L30,10.6L33,8L36,4.3L39,0L42,-4.3L45,-8L48,-10.6L51,-11.9L54,-11.7L57,-9.9L60,-6.8L63,-2.9L66,1.4L69,5.6L72,9L75,11.2L78,12L81,11.2L84,9L87,5.6L90,1.4L93,-2.9L96,-6.8L99,-9.9L102,-11.7L105,-11.9L108,-10.6L111,-8L114,-4.3L117,-0L120,4.3L123,8L126,10.6L129,11.9L132,11.7L135,9.9L138,6.8L141,2.9L144,-1.4L147,-5.6L150,-9L153,-11.2L156,-12L159,-11.2L162,-9L165,-5.6L168,-1.4L171,2.9L174,6.8L177,9.9L180,11.7L183,11.9L186,10.6L189,8L192,4.3L195,0L198,-4.3L201,-8L204,-10.6L207,-11.9L210,-11.7L213,-9.9L216,-6.8L219,-2.9L222,1.4L225,5.6L228,9L231,11.2L234,12L237,11.2L240,9L243,5.6L246,1.4L249,-2.9L252,-6.8L255,-9.9L258,-11.7L261,-11.9L264,-10.6L267,-8L270,-4.3L273,-0L276,4.3L279,8L282,10.6L285,11.9L288,11.7L291,9.9L294,6.8L297,2.9L300,-1.4L303,-5.6L306,-9L309,-11.2L312,-12L315,-11.2L318,-9L321,-5.6L324,-1.4L327,2.9L330,6.8L333,9.9L336,11.7L339,11.9L342,10.6L345,8L348,4.3L351,0L354,-4.3L357,-8L360,-10.6L363,-11.9L366,-11.7L369,-9.9L372,-6.8L375,-2.9L378,1.4L381,5.6L384,9L387,11.2L390,12L393,11.2L396,9L399,5.6L402,1.4L405,-2.9L408,-6.8L411,-9.9L414,-11.7L417,-11.9L420,-10.6L423,-8L426,-4.3L429,-0L432,4.3L435,8L438,10.6L441,11.9L444,11.7L447,9.9L450,6.8L453,2.9L456,-1.4L459,-5.6L462,-9L465,-11.2L468,-12L471,-11.2L474,-9L477,-5.6L480,-1.4L483,2.9L486,6.8L489,9.9L492,11.7L495,11.9L498,10.6L501,8L504,4.3L507,-0L510,-4.3L513,-8L516,-10.6L519,-11.9L522,-11.7L525,-9.9L528,-6.8L531,-2.9L534,1.4L537,5.6L540,9L543,11.2L546,12L549,11.2L552,9L555,5.6L558,1.4L561,-2.9L564,-6.8L567,-9.9L570,-11.7L573,-11.9L576,-10.6L579,-8L582,-4.3L585,-0L588,4.3L591,8L594,10.6L597,11.9L600,11.7L603,9.9L606,6.8L609,2.9L612,-1.4L615,-5.6L618,-9L621,-11.2L624,-12L627,-11.2L630,-9L633,-5.6L636,-1.4L639,2.9L642,6.8L645,9.9L648,11.7L651,11.9L654,10.6L657,8L660,4.3L663,0L666,-4.3L669,-8L672,-10.6L675,-11.9L678,-11.7L681,-9.9L684,-6.8L687,-2.9L690,1.4L693,5.6L696,9L699,11.2L702,12L705,11.2L708,9L711,5.6L714,1.4L717,-2.9L720,-6.8L723,-9.9L726,-11.7L729,-11.9L732,-10.6L735,-8L738,-4.3L741,0L744,4.3L747,8L750,10.6L753,11.9L756,11.7L759,9.9L762,6.8L765,2.9L768,-1.4L771,-5.6L774,-9L777,-11.2L780,-12L783,-11.2L786,-9L789,-5.6L792,-1.4L795,2.9L798,6.8L801,9.9L804,11.7L807,11.9L810,10.6L813,8L816,4.3" fill="none" stroke="#B8892B" stroke-width="0.9"/></g><g id="history-cr"><circle r="21" fill="#F3ECDC"/><circle r="19.5" fill="none" stroke="#1F5C45" stroke-width="0.8"/><path d="M19,0L18.7,0.7L18,1.3L16.8,1.8L15.2,2.1L13.4,2.4L11.6,2.5L9.8,2.4L8.2,2.3L6.9,2.2L6,2.2L5.6,2.3L5.6,2.5L6.1,3L6.9,3.7L8,4.6L9.3,5.8L10.6,7.1L11.7,8.5L12.7,9.9L13.4,11.2L13.7,12.3L13.6,13.2L13.2,13.6L12.3,13.7L11.2,13.4L9.9,12.7L8.5,11.7L7.1,10.6L5.8,9.3L4.6,8L3.7,6.9L3,6.1L2.5,5.6L2.3,5.6L2.2,6L2.2,6.9L2.3,8.2L2.4,9.8L2.5,11.6L2.4,13.4L2.1,15.2L1.8,16.8L1.3,18L0.7,18.7L0,19L-0.7,18.7L-1.3,18L-1.8,16.8L-2.1,15.2L-2.4,13.4L-2.5,11.6L-2.4,9.8L-2.3,8.2L-2.2,6.9L-2.2,6L-2.3,5.6L-2.5,5.6L-3,6.1L-3.7,6.9L-4.6,8L-5.8,9.3L-7.1,10.6L-8.5,11.7L-9.9,12.7L-11.2,13.4L-12.3,13.7L-13.2,13.6L-13.6,13.2L-13.7,12.3L-13.4,11.2L-12.7,9.9L-11.7,8.5L-10.6,7.1L-9.3,5.8L-8,4.6L-6.9,3.7L-6.1,3L-5.6,2.5L-5.6,2.3L-6,2.2L-6.9,2.2L-8.2,2.3L-9.8,2.4L-11.6,2.5L-13.4,2.4L-15.2,2.1L-16.8,1.8L-18,1.3L-18.7,0.7L-19,0L-18.7,-0.7L-18,-1.3L-16.8,-1.8L-15.2,-2.1L-13.4,-2.4L-11.6,-2.5L-9.8,-2.4L-8.2,-2.3L-6.9,-2.2L-6,-2.2L-5.6,-2.3L-5.6,-2.5L-6.1,-3L-6.9,-3.7L-8,-4.6L-9.3,-5.8L-10.6,-7.1L-11.7,-8.5L-12.7,-9.9L-13.4,-11.2L-13.7,-12.3L-13.6,-13.2L-13.2,-13.6L-12.3,-13.7L-11.2,-13.4L-9.9,-12.7L-8.5,-11.7L-7.1,-10.6L-5.8,-9.3L-4.6,-8L-3.7,-6.9L-3,-6.1L-2.5,-5.6L-2.3,-5.6L-2.2,-6L-2.2,-6.9L-2.3,-8.2L-2.4,-9.8L-2.5,-11.6L-2.4,-13.4L-2.1,-15.2L-1.8,-16.8L-1.3,-18L-0.7,-18.7L-0,-19L0.7,-18.7L1.3,-18L1.8,-16.8L2.1,-15.2L2.4,-13.4L2.5,-11.6L2.4,-9.8L2.3,-8.2L2.2,-6.9L2.2,-6L2.3,-5.6L2.5,-5.6L3,-6.1L3.7,-6.9L4.6,-8L5.8,-9.3L7.1,-10.6L8.5,-11.7L9.9,-12.7L11.2,-13.4L12.3,-13.7L13.2,-13.6L13.6,-13.2L13.7,-12.3L13.4,-11.2L12.7,-9.9L11.7,-8.5L10.6,-7.1L9.3,-5.8L8,-4.6L6.9,-3.7L6.1,-3L5.6,-2.5L5.6,-2.3L6,-2.2L6.9,-2.2L8.2,-2.3L9.8,-2.4L11.6,-2.5L13.4,-2.4L15.2,-2.1L16.8,-1.8L18,-1.3L18.7,-0.7L19,-0Z" fill="none" stroke="#B8892B" stroke-width="1"/><circle r="5" fill="none" stroke="#1F5C45" stroke-width="0.8"/><circle r="1.8" fill="#B8892B"/></g></defs><rect width="600" height="900" fill="#F3ECDC"/><rect x="12" y="12" width="576" height="876" fill="none" stroke="#20262A" stroke-width="1.25"/><rect x="17" y="17" width="566" height="866" fill="none" stroke="#20262A" stroke-width="0.5"/><rect x="66" y="66" width="468" height="768" fill="none" stroke="#20262A" stroke-width="0.5"/><use href="#history-bh" transform="translate(42,42)"/><use href="#history-bh" transform="translate(558,858) rotate(180)"/><use href="#history-bv" transform="translate(42,858) rotate(-90)"/><use href="#history-bv" transform="translate(558,42) rotate(90)"/><use href="#history-cr" transform="translate(42,42)"/><use href="#history-cr" transform="translate(558,42)"/><use href="#history-cr" transform="translate(42,858)"/><use href="#history-cr" transform="translate(558,858)"/><circle cx="300" cy="385" r="118" fill="none" stroke="#20262A" stroke-width="0.5"/><circle cx="300" cy="385" r="113" fill="none" stroke="#1F5C45" stroke-width="0.9"/><path d="M407,385L406.5,388.7L404.9,392.3L402.4,395.8L399.1,398.9L395,401.8L390.5,404.2L385.6,406.3L380.6,408.1L375.6,409.6L370.9,410.8L366.7,412L363,413.1L360.1,414.3L357.8,415.7L356.3,417.5L355.5,419.7L355.4,422.4L355.8,425.6L356.7,429.3L357.8,433.5L359.1,438.2L360.3,443.2L361.3,448.4L361.9,453.7L362,458.9L361.6,463.8L360.5,468.3L358.8,472.2L356.5,475.4L353.5,477.7L350,479.1L346.1,479.5L341.9,479.1L337.5,477.8L333,475.7L328.6,473L324.3,469.8L320.3,466.3L316.5,462.8L313.1,459.4L310,456.2L307.2,453.6L304.7,451.7L302.3,450.4L300,450L297.7,450.4L295.3,451.7L292.8,453.6L290,456.2L286.9,459.4L283.5,462.8L279.7,466.3L275.7,469.8L271.4,473L267,475.7L262.5,477.8L258.1,479.1L253.9,479.5L250,479.1L246.5,477.7L243.5,475.4L241.2,472.2L239.5,468.3L238.4,463.8L238,458.9L238.1,453.7L238.7,448.4L239.7,443.2L240.9,438.2L242.2,433.5L243.3,429.3L244.2,425.6L244.6,422.4L244.5,419.7L243.7,417.5L242.2,415.7L239.9,414.3L237,413.1L233.3,412L229.1,410.8L224.4,409.6L219.4,408.1L214.4,406.3L209.5,404.2L205,401.8L200.9,398.9L197.6,395.8L195.1,392.3L193.5,388.7L193,385L193.5,381.3L195.1,377.7L197.6,374.2L200.9,371.1L205,368.2L209.5,365.8L214.4,363.7L219.4,361.9L224.4,360.4L229.1,359.2L233.3,358L237,356.9L239.9,355.7L242.2,354.3L243.7,352.5L244.5,350.3L244.6,347.6L244.2,344.4L243.3,340.7L242.2,336.5L240.9,331.8L239.7,326.8L238.7,321.6L238.1,316.3L238,311.1L238.4,306.2L239.5,301.7L241.2,297.8L243.5,294.6L246.5,292.3L250,290.9L253.9,290.5L258.1,290.9L262.5,292.2L267,294.3L271.4,297L275.7,300.2L279.7,303.7L283.5,307.2L286.9,310.6L290,313.8L292.8,316.4L295.3,318.3L297.7,319.6L300,320L302.3,319.6L304.7,318.3L307.2,316.4L310,313.8L313.1,310.6L316.5,307.2L320.3,303.7L324.3,300.2L328.6,297L333,294.3L337.5,292.2L341.9,290.9L346.1,290.5L350,290.9L353.5,292.3L356.5,294.6L358.8,297.8L360.5,301.7L361.6,306.2L362,311.1L361.9,316.3L361.3,321.6L360.3,326.8L359.1,331.8L357.8,336.5L356.7,340.7L355.8,344.4L355.4,347.6L355.5,350.3L356.3,352.5L357.8,354.3L360.1,355.7L363,356.9L366.7,358L370.9,359.2L375.6,360.4L380.6,361.9L385.6,363.7L390.5,365.8L395,368.2L399.1,371.1L402.4,374.2L404.9,377.7L406.5,381.3L407,385Z" fill="none" stroke="#B8892B" stroke-width="0.9"/><path d="M365,385L365.4,387.3L366.7,389.7L368.6,392.2L371.2,395L374.4,398.1L377.8,401.5L381.3,405.3L384.8,409.3L388,413.6L390.7,418L392.8,422.5L394.1,426.9L394.5,431.1L394.1,435L392.7,438.5L390.4,441.5L387.2,443.8L383.3,445.5L378.8,446.6L373.9,447L368.7,446.9L363.4,446.3L358.2,445.3L353.2,444.1L348.5,442.8L344.3,441.7L340.6,440.8L337.4,440.4L334.7,440.5L332.5,441.3L330.7,442.8L329.3,445.1L328.1,448L327,451.7L325.8,455.9L324.6,460.6L323.1,465.6L321.3,470.6L319.2,475.5L316.8,480L313.9,484.1L310.8,487.4L307.3,489.9L303.7,491.5L300,492L296.3,491.5L292.7,489.9L289.2,487.4L286.1,484.1L283.2,480L280.8,475.5L278.7,470.6L276.9,465.6L275.4,460.6L274.2,455.9L273,451.7L271.9,448L270.7,445.1L269.3,442.8L267.5,441.3L265.3,440.5L262.6,440.4L259.4,440.8L255.7,441.7L251.5,442.8L246.8,444.1L241.8,445.3L236.6,446.3L231.3,446.9L226.1,447L221.2,446.6L216.7,445.5L212.8,443.8L209.6,441.5L207.3,438.5L205.9,435L205.5,431.1L205.9,426.9L207.2,422.5L209.3,418L212,413.6L215.2,409.3L218.7,405.3L222.2,401.5L225.6,398.1L228.8,395L231.4,392.2L233.3,389.7L234.6,387.3L235,385L234.6,382.7L233.3,380.3L231.4,377.8L228.8,375L225.6,371.9L222.2,368.5L218.7,364.7L215.2,360.7L212,356.4L209.3,352L207.2,347.5L205.9,343.1L205.5,338.9L205.9,335L207.3,331.5L209.6,328.5L212.8,326.2L216.7,324.5L221.2,323.4L226.1,323L231.3,323.1L236.6,323.7L241.8,324.7L246.8,325.9L251.5,327.2L255.7,328.3L259.4,329.2L262.6,329.6L265.3,329.5L267.5,328.7L269.3,327.2L270.7,324.9L271.9,322L273,318.3L274.2,314.1L275.4,309.4L276.9,304.4L278.7,299.4L280.8,294.5L283.2,290L286.1,285.9L289.2,282.6L292.7,280.1L296.3,278.5L300,278L303.7,278.5L307.3,280.1L310.8,282.6L313.9,285.9L316.8,290L319.2,294.5L321.3,299.4L323.1,304.4L324.6,309.4L325.8,314.1L327,318.3L328.1,322L329.3,324.9L330.7,327.2L332.5,328.7L334.7,329.5L337.4,329.6L340.6,329.2L344.3,328.3L348.5,327.2L353.2,325.9L358.2,324.7L363.4,323.7L368.7,323.1L373.9,323L378.8,323.4L383.3,324.5L387.2,326.2L390.4,328.5L392.7,331.5L394.1,335L394.5,338.9L394.1,343.1L392.8,347.5L390.7,352L388,356.4L384.8,360.7L381.3,364.7L377.8,368.5L374.4,371.9L371.2,375L368.6,377.8L366.7,380.3L365.4,382.7L365,385Z" fill="none" stroke="#1F5C45" stroke-width="0.7"/><circle cx="300" cy="385" r="62" fill="#F3ECDC" stroke="#1F5C45" stroke-width="0.8"/><circle cx="300" cy="385" r="58" fill="none" stroke="#20262A" stroke-width="0.5"/><line x1="210" y1="762" x2="272" y2="762" stroke="#20262A" stroke-width="0.5"/><line x1="328" y1="762" x2="390" y2="762" stroke="#20262A" stroke-width="0.5"/><path d="M313,762L312.9,762.5L312.6,762.9L312.2,763.3L311.6,763.6L310.8,763.9L310,764.1L309.1,764.3L308.2,764.4L307.4,764.4L306.6,764.4L305.9,764.4L305.3,764.3L304.8,764.3L304.5,764.4L304.3,764.5L304.3,764.7L304.4,765L304.7,765.4L305,765.9L305.4,766.5L305.8,767.2L306.2,768L306.5,768.8L306.8,769.6L307.1,770.4L307.2,771.2L307.2,771.9L307.1,772.5L306.8,773L306.5,773.3L306.1,773.4L305.5,773.4L305,773.2L304.4,772.8L303.8,772.3L303.2,771.7L302.6,771.1L302.1,770.3L301.6,769.6L301.2,768.9L300.9,768.3L300.6,767.7L300.4,767.3L300.2,767.1L300,767L299.8,767.1L299.6,767.3L299.4,767.7L299.1,768.3L298.8,768.9L298.4,769.6L297.9,770.3L297.4,771.1L296.8,771.7L296.2,772.3L295.6,772.8L295,773.2L294.5,773.4L293.9,773.4L293.5,773.3L293.2,773L292.9,772.5L292.8,771.9L292.8,771.2L292.9,770.4L293.2,769.6L293.5,768.8L293.8,768L294.2,767.2L294.6,766.5L295,765.9L295.3,765.4L295.6,765L295.7,764.7L295.7,764.5L295.5,764.4L295.2,764.3L294.7,764.3L294.1,764.4L293.4,764.4L292.6,764.4L291.8,764.4L290.9,764.3L290,764.1L289.2,763.9L288.4,763.6L287.8,763.3L287.4,762.9L287.1,762.5L287,762L287.1,761.5L287.4,761.1L287.8,760.7L288.4,760.4L289.2,760.1L290,759.9L290.9,759.7L291.8,759.6L292.6,759.6L293.4,759.6L294.1,759.6L294.7,759.7L295.2,759.7L295.5,759.6L295.7,759.5L295.7,759.3L295.6,759L295.3,758.6L295,758.1L294.6,757.5L294.2,756.8L293.8,756L293.5,755.2L293.2,754.4L292.9,753.6L292.8,752.8L292.8,752.1L292.9,751.5L293.2,751L293.5,750.7L293.9,750.6L294.5,750.6L295,750.8L295.6,751.2L296.2,751.7L296.8,752.3L297.4,752.9L297.9,753.7L298.4,754.4L298.8,755.1L299.1,755.7L299.4,756.3L299.6,756.7L299.8,756.9L300,757L300.2,756.9L300.4,756.7L300.6,756.3L300.9,755.7L301.2,755.1L301.6,754.4L302.1,753.7L302.6,752.9L303.2,752.3L303.8,751.7L304.4,751.2L305,750.8L305.5,750.6L306.1,750.6L306.5,750.7L306.8,751L307.1,751.5L307.2,752.1L307.2,752.8L307.1,753.6L306.8,754.4L306.5,755.2L306.2,756L305.8,756.8L305.4,757.5L305,758.1L304.7,758.6L304.4,759L304.3,759.3L304.3,759.5L304.5,759.6L304.8,759.7L305.3,759.7L305.9,759.6L306.6,759.6L307.4,759.6L308.2,759.6L309.1,759.7L310,759.9L310.8,760.1L311.6,760.4L312.2,760.7L312.6,761.1L312.9,761.5L313,762Z" fill="none" stroke="#B8892B" stroke-width="0.8"/><line x1="108" y1="118" x2="168" y2="118" stroke="#20262A" stroke-width="0.6"/><line x1="432" y1="118" x2="492" y2="118" stroke="#20262A" stroke-width="0.6"/><text x="300" y="125" text-anchor="middle" font-family="Fraunces, Georgia, serif" font-weight="600" font-size="20" letter-spacing="5" fill="#20262A">THE ECONOMY HUB</text><text x="300" y="424.8" text-anchor="middle" font-family="Fraunces, Georgia, serif" font-weight="600" font-size="112" fill="#1F5C45">II</text><text x="300" y="561" text-anchor="middle" font-family="'IBM Plex Mono', Consolas, monospace" font-weight="500" font-size="14" letter-spacing="5" fill="#7E5A12">VOLUME TWO</text><text x="300" y="628" text-anchor="middle" font-family="Fraunces, Georgia, serif" font-weight="600" font-size="58" fill="#20262A">History</text><text x="300" y="664" text-anchor="middle" font-family="'Source Serif 4', Georgia, serif" font-style="italic" font-size="17.5" fill="#4A5258">Exchange and its institutions,</text><text x="300" y="690" text-anchor="middle" font-family="'Source Serif 4', Georgia, serif" font-style="italic" font-size="17.5" fill="#4A5258">from barter to the attention market.</text></svg>