<svg viewBox="0 0 64 64" xmlns="http://www.w3.org/2000/svg"><rect width="64" height="64" rx="12" fill="#F3ECDC"/><circle cx="32" cy="32" r="27" fill="none" stroke="#B8892B" stroke-width="1.8"/><path d="M57,32L56.7,32.9L55.7,33.7L54.2,34.3L52.3,34.9L50.1,35.2L47.8,35.4L45.6,35.4L43.6,35.3L42,35.3L40.9,35.2L40.4,35.4L40.4,35.7L40.9,36.4L41.9,37.3L43.3,38.5L44.8,40L46.3,41.7L47.8,43.4L48.9,45.2L49.7,46.9L50.1,48.3L49.9,49.3L49.3,49.9L48.3,50.1L46.9,49.7L45.2,48.9L43.4,47.8L41.7,46.3L40,44.8L38.5,43.3L37.3,41.9L36.4,40.9L35.7,40.4L35.4,40.4L35.2,40.9L35.3,42L35.3,43.6L35.4,45.6L35.4,47.8L35.2,50.1L34.9,52.3L34.3,54.2L33.7,55.7L32.9,56.7L32,57L31.1,56.7L30.3,55.7L29.7,54.2L29.1,52.3L28.8,50.1L28.6,47.8L28.6,45.6L28.7,43.6L28.7,42L28.8,40.9L28.6,40.4L28.3,40.4L27.6,40.9L26.7,41.9L25.5,43.3L24,44.8L22.3,46.3L20.6,47.8L18.8,48.9L17.1,49.7L15.7,50.1L14.7,49.9L14.1,49.3L13.9,48.3L14.3,46.9L15.1,45.2L16.2,43.4L17.7,41.7L19.2,40L20.7,38.5L22.1,37.3L23.1,36.4L23.6,35.7L23.6,35.4L23.1,35.2L22,35.3L20.4,35.3L18.4,35.4L16.2,35.4L13.9,35.2L11.7,34.9L9.8,34.3L8.3,33.7L7.3,32.9L7,32L7.3,31.1L8.3,30.3L9.8,29.7L11.7,29.1L13.9,28.8L16.2,28.6L18.4,28.6L20.4,28.7L22,28.7L23.1,28.8L23.6,28.6L23.6,28.3L23.1,27.6L22.1,26.7L20.7,25.5L19.2,24L17.7,22.3L16.2,20.6L15.1,18.8L14.3,17.1L13.9,15.7L14.1,14.7L14.7,14.1L15.7,13.9L17.1,14.3L18.8,15.1L20.6,16.2L22.3,17.7L24,19.2L25.5,20.7L26.7,22.1L27.6,23.1L28.3,23.6L28.6,23.6L28.8,23.1L28.7,22L28.7,20.4L28.6,18.4L28.6,16.2L28.8,13.9L29.1,11.7L29.7,9.8L30.3,8.3L31.1,7.3L32,7L32.9,7.3L33.7,8.3L34.3,9.8L34.9,11.7L35.2,13.9L35.4,16.2L35.4,18.4L35.3,20.4L35.3,22L35.2,23.1L35.4,23.6L35.7,23.6L36.4,23.1L37.3,22.1L38.5,20.7L40,19.2L41.7,17.7L43.4,16.2L45.2,15.1L46.9,14.3L48.3,13.9L49.3,14.1L49.9,14.7L50.1,15.7L49.7,17.1L48.9,18.8L47.8,20.6L46.3,22.3L44.8,24L43.3,25.5L41.9,26.7L40.9,27.6L40.4,28.3L40.4,28.6L40.9,28.8L42,28.7L43.6,28.7L45.6,28.6L47.8,28.6L50.1,28.8L52.3,29.1L54.2,29.7L55.7,30.3L56.7,31.1L57,32Z" fill="none" stroke="#1F5C45" stroke-width="2.4"/><circle cx="32" cy="32" r="4.5" fill="#B8892B"/></svg>